{"title":"Shades (1999)DVD.R5.Rip.XviD-WDR","uid":6862957,"size":734855027,"categoryP":"video","categoryS":"movies","magnet":"?xt=urn:btih:927e516cf2a6bc15efb25f0375203aff15ae8871&amp;dn=Shades+%281999%29DVD.R5.Rip.XviD-WDR&amp;tr=udp%3A%2F%2Ftracker.openbittorrent.com%3A80&amp;tr=udp%3A%2F%2Fopen.demonii.com%3A1337&amp;tr=udp%3A%2F%2Ftracker.coppersurfer.tk%3A6969&amp;tr=udp%3A%2F%2Fexodus.desync.com%3A6969","seeders":0,"leechers":2,"uploader":"sceneline","files":4,"time":1322985616,"description":"- &lt;a href=&quot;\nhttp://www.Speed.Cd&quot; rel=&quot;nofollow&quot; target=&quot;_NEW&quot;&gt;\nhttp://www.Speed.Cd&lt;/a&gt;      fast  and The Hottest Private Tracker on the net\n\n   signup is open now\n\nPlease Seed back to make the speed Faster!!!\n\n------------------nfo--------------------------\n-Video\nID                               : 0\nFormat                           : MPEG-4 Visual\nFormat profile                   : Advanced Simple@L5\nFormat settings, BVOP            : Yes\nFormat settings, QPel            : No\nFormat settings, GMC             : No warppoints\nFormat settings, Matrix          : Default (H.263)\nMuxing mode                      : Packed bitstream\nCodec ID                         : XVID\nCodec ID/Hint                    : XviD\nDuration                         : 1h 35mn\nBit rate                         : 822 Kbps\nWidth                            : 636 pixels\nHeight                           : 356 pixels\nDisplay aspect ratio             : 16:9\nFrame rate                       : 25.000 fps\nColor space                      : YUV\nChroma subsampling               : 4:2:0\nBit depth                        : 8 bits\nScan type                        : Progressive\nBits/(Pixel*Frame)               : 0.145\nStream size                      : 564 MiB (80%)\nWriting library                  : XviD 62\n\nAudio\nID                               : 1\nFormat                           : AC-3\nFormat/Info                      : Audio Coding 3\nMode extension                   : CM (complete main)\nCodec ID                         : 2000\nDuration                         : 1h 35mn\nBit rate mode                    : Constant\nBit rate                         : 192 Kbps\nChannel(s)                       : 2 channels\nChannel positions                : Front: L R\nSampling rate                    : 48.0 KHz\nBit depth                        : 16 bits\nStream size                      : 132 MiB (19%)\nAlignment                        : Split accross interleaves\nInterleave, duration             : 64 ms (1.60 video frames)\nInterleave, preload duration     : 500 ms","torrent":{"xt":"urn:btih:927e516cf2a6bc15efb25f0375203aff15ae8871","amp;dn":"Shades+%281999%29DVD.R5.Rip.XviD-WDR","amp;tr":["udp%3A%2F%2Ftracker.openbittorrent.com%3A80","udp%3A%2F%2Fopen.demonii.com%3A1337","udp%3A%2F%2Ftracker.coppersurfer.tk%3A6969","udp%3A%2F%2Fexodus.desync.com%3A6969"],"infoHash":"927e516cf2a6bc15efb25f0375203aff15ae8871","infoHashBuffer":{"type":"Buffer","data":[146,126,81,108,242,166,188,21,239,178,95,3,117,32,58,255,21,174,136,113]},"announce":[],"urlList":[]}}